<?xml version="1.0" encoding="UTF-8" standalone="no"?>
<svg xmlns:rdf="http://www.w3.org/1999/02/22-rdf-syntax-ns#" xmlns="http://www.w3.org/2000/svg" height="128.95" width="128.95" version="1.1" xmlns:cc="http://creativecommons.org/ns#" xmlns:dc="http://purl.org/dc/elements/1.1/" viewBox="0 0 128.94901 128.94901">
 <defs>
  <clipPath id="a" clipPathUnits="userSpaceOnUse">
   <path d="m0 144h216v-144h-216v144z"/>
  </clipPath>
 </defs>
 <g transform="translate(0 -923.41)">
  <g transform="matrix(1.25 0 0 -1.25 -71.322 1077.1)">
   <g clip-path="url(#a)">
    <g transform="translate(160.22 71.399)">
     <path d="m0 0c0-28.487-23.094-51.579-51.581-51.579-28.486 0-51.578 23.092-51.578 51.579 0 28.486 23.092 51.58 51.578 51.58 28.488 0 51.582-23.094 51.582-51.58" fill="#006e96"/>
    </g>
    <g transform="translate(75.833 62.247)">
     <path d="m0 0v12.267c0 4.222-2.262 6.535-5.881 6.535-2.564 0-4.928-1.308-6.435-2.413v-16.389h-4.676v22.772h4.273v-2.111c1.61 1.107 3.973 2.514 7.442 2.514 3.316 0 9.953-1.609 9.953-11.16v-12.015h-4.676z" fill="#f2eed4"/>
    </g>
    <g transform="translate(104.93 72.302)">
     <path d="m0 0v0.301c0 9.2-5.279 12.92-10.809 12.92-7.591 0-11.111-5.932-11.111-11.764 0-7.339 4.576-12.115 11.664-12.115 3.67 0 6.988 1.006 9.854 2.966v4.625c-2.213-1.81-5.481-3.369-9.25-3.369-3.871 0-7.088 2.062-7.34 6.436h16.992zm-5.18 3.921h-11.812c0.402 2.664 2.06 5.278 5.931 5.278 3.418 0 5.68-2.363 5.881-5.278" fill="#f2eed4"/>
    </g>
    <g transform="translate(132.02 62.247)">
     <path d="m0 0h-4.121l-5.43 15.232-5.48-15.232h-4.121l-9.201 22.772h4.827l6.284-16.588 5.931 16.588h3.469l5.932-16.588 6.285 16.588h4.826l-9.201-22.772z" fill="#f2eed4"/>
    </g>
    <g transform="translate(150.81 61.644)">
     <path d="m0 0c-3.668 0-7.338 1.156-8.848 1.86v4.776c2.414-1.307 5.733-2.413 9.049-2.413 2.615 0 4.375 0.955 4.375 2.464 0 1.206-1.156 1.91-2.664 2.362-6.537 2.011-8.246 2.715-9.502 3.921-0.955 0.905-1.609 2.162-1.609 3.971 0 3.621 2.816 6.938 8.949 6.938 2.764 0 5.277-0.704 7.49-1.508v-4.625c-2.463 1.257-5.177 2.011-7.541 2.011-3.117 0-4.222-1.107-4.222-2.313s0.955-1.709 3.519-2.513c5.83-1.76 7.088-2.363 8.295-3.268 1.307-0.955 2.061-2.715 2.061-4.223 0-3.971-3.067-7.44-9.352-7.44" fill="#f2eed4"/>
    </g>
    <g transform="translate(85.97 90.153)">
     <path d="m0 0c0-0.804-0.886-1.857-4.211-1.857-3.547 0-4.322 1.136-4.322 1.857 0 0.775 0.83 1.801 2.992 2.631 2.854-0.83 5.541-1.025 5.541-2.631m2.688 13.327v2.161h-4.627c-0.721 0.279-1.524 0.417-2.356 0.417-2.715 0-5.402-1.717-5.402-4.932 0-1.663 0.857-2.799 1.994-3.548-1.108-0.61-1.662-1.301-1.662-2.161 0-0.721 0.443-1.302 1.58-1.718-1.801-0.915-3.215-1.966-3.215-3.795 0-1.83 1.691-3.797 6.705-3.797 3.77 0 6.762 1.275 6.762 4.184 0 2.244-1.69 3.242-3.574 3.685-4.461 1.081-5.625 1.026-5.625 1.885 0 0.276 0.193 0.554 0.693 0.915 0.748-0.195 1.496-0.278 2.05-0.278 3.048 0 5.153 2.106 5.153 4.628 0 1.053-0.416 1.828-0.914 2.354h2.438zm-4.073-2.189c0-1.773-1.357-2.549-2.826-2.549-1.718 0-2.965 0.942-2.965 2.439 0 1.551 1.192 2.55 2.742 2.55 2.191 0 3.049-1.359 3.049-2.44" fill="#9dcabf"/>
    </g>
    <g transform="translate(102.11 97.124)">
     <path d="m0 0c0 3.659-2.826 6.567-6.706 6.567-3.879 0-6.705-2.908-6.705-6.567 0-3.657 2.826-6.567 6.705-6.567 3.88 0 6.706 2.91 6.706 6.567m-2.688 0c0-2.494-1.746-4.184-4.018-4.184-2.273 0-4.019 1.69-4.019 4.184 0 2.495 1.746 4.185 4.019 4.185 2.272 0 4.018-1.69 4.018-4.185" fill="#9dcabf"/>
    </g>
    <g transform="translate(116.9 97.124)">
     <path d="m0 0c0 3.659-2.826 6.567-6.705 6.567-3.88 0-6.707-2.908-6.707-6.567 0-3.657 2.827-6.567 6.707-6.567 3.879 0 6.705 2.91 6.705 6.567m-2.688 0c0-2.494-1.747-4.184-4.017-4.184-2.274 0-4.019 1.69-4.019 4.184 0 2.495 1.745 4.185 4.019 4.185 2.27 0 4.017-1.69 4.017-4.185" fill="#9dcabf"/>
    </g>
    <g transform="translate(131.1 90.862)">
     <path d="m0 0v18.621h-2.576v-6.845c-0.914 0.582-2.135 1.053-3.604 1.053-3.158 0-6.373-2.577-6.373-6.511 0-4.572 3.74-6.568 6.319-6.568 1.384 0 2.66 0.472 3.88 1.414v-1.164h2.354zm-2.576 3.491c-0.612-0.526-1.692-1.357-3.326-1.357-1.773 0-3.934 1.246-3.934 4.184 0 2.244 1.441 4.128 3.879 4.128 1.412 0 2.576-0.526 3.381-1.164v-5.791z" fill="#9dcabf"/>
    </g>
    <path d="m105.99 47.277h2.909v-3.107h-2.909v3.107z" fill="#9dcabf"/>
    <g transform="translate(119.99 44.17)">
     <path d="m0 0v6.832c0 2.352-1.235 3.64-3.212 3.64-1.399 0-2.689-0.728-3.514-1.345v-9.127h-2.552v12.684h2.333v-1.176c0.879 0.615 2.169 1.399 4.063 1.399 1.812 0 5.435-0.895 5.435-6.216v-6.691h-2.553z" fill="#9dcabf"/>
    </g>
    <g transform="translate(129.62 54.894)">
     <path d="m0 0c-2.113 0-3.02-1.456-3.239-2.94h6.451c-0.11 1.625-1.345 2.94-3.212 2.94m-3.239-5.124c0.137-2.436 1.894-3.584 4.008-3.584 2.058 0 3.842 0.867 5.05 1.876v-2.576c-1.564-1.092-3.376-1.652-5.38-1.652-3.871 0-6.369 2.661-6.369 6.748 0 3.249 1.922 6.551 6.068 6.551 3.019 0 5.901-2.071 5.901-7.195v-0.168h-9.278z" fill="#9dcabf"/>
    </g>
    <g transform="translate(142.3 43.945)">
     <path d="m0 0c-1.866 0-4.31 0.672-4.31 4.172v6.524h-2.525v2.212h2.525v3.863h2.553v-3.863h3.761v-2.212h-3.761v-6.328c0-1.651 0.852-2.128 2.142-2.128 1.097 0 1.893 0.393 2.387 0.645v-2.297c-0.877-0.42-1.673-0.588-2.772-0.588" fill="#9dcabf"/>
    </g>
    <g transform="translate(80.49 51.104)">
     <path d="m0 0-4.831-5.711h4.831v5.711zm2.745-7.951v-4.424h-2.745v4.424h-9.854l12.599 14.783v-12.543h3.103v-2.24h-3.103z" fill="#9dcabf"/>
    </g>
    <g transform="translate(95.861 37.76)">
     <path d="m0 0c-3.926 0-8.235 2.633-8.235 8.428v10.78h2.634v-10.892c0-4.48 3.35-5.796 5.601-5.796s5.6 1.316 5.6 5.796v10.892h2.635v-10.78c0-5.795-4.31-8.428-8.235-8.428" fill="#9dcabf"/>
    </g>
   </g>
  </g>
 </g>
</svg>
